<svg width="21" height="21" fill="none" xmlns="http://www.w3.org/2000/svg"><path d="M11.928.094a10.768 10.768 0 00-7.13 1.542C2.694 2.959 1.16 4.969.478 7.294a9.637 9.637 0 00.613 6.991c1.076 2.183 2.94 3.918 5.245 4.885a7.455 7.455 0 01.17-2.293c.192-.839 1.35-5.463 1.35-5.463a3.611 3.611 0 01-.338-1.577c0-1.485.893-2.593 2.003-2.593a1.435 1.435 0 011.059.447 1.293 1.293 0 01.34 1.061c0 .9-.603 2.262-.917 3.54a1.483 1.483 0 00.314 1.359 1.6 1.6 0 00.593.434c.23.098.482.142.733.13 1.977 0 3.302-2.43 3.302-5.3 0-2.2-1.517-3.849-4.315-3.849a5.13 5.13 0 00-1.963.311 4.97 4.97 0 00-1.676 1.029c-.48.448-.86.986-1.118 1.58a4.58 4.58 0 00-.379 1.874c-.03.713.21 1.413.675 1.97a.48.48 0 01.181.25c.03.1.026.207-.012.304-.048.184-.169.623-.217.784a.347.347 0 01-.067.15.38.38 0 01-.464.103c-1.441-.553-2.12-2.076-2.12-3.815 0-2.847 2.483-6.255 7.451-6.255 3.955 0 6.584 2.777 6.584 5.747 0 3.91-2.268 6.848-5.619 6.848-.5.015-.998-.09-1.444-.309A2.945 2.945 0 019.33 14.7s-.602 2.316-.721 2.754a7.89 7.89 0 01-1.062 2.131c.962.28 1.96.42 2.965.416a10.783 10.783 0 003.988-.76 10.444 10.444 0 003.38-2.168 9.972 9.972 0 002.256-3.246 9.642 9.642 0 00.788-3.829c0-2.415-.912-4.748-2.566-6.568C16.706 1.61 14.422.425 11.93.095h-.002z" fill="#fff"/></svg>